
<?xml version="1.0" encoding="iso-8859-1"?>
<!-- Generator: Adobe Illustrator 19.0.0, SVG Export Plug-In . SVG Version: 6.00 Build 0)  -->
<svg version="1.1" id="Capa_1" xmlns="http://www.w3.org/2000/svg" xmlns:xlink="http://www.w3.org/1999/xlink" x="0px" y="0px"
	 viewBox="0 0 512 512" style="enable-background:new 0 0 512 512;" xml:space="preserve">
<g>
	<path style="fill:#303C42;" d="M469.333,0h-256c-23.531,0-42.667,19.135-42.667,42.667v74.667c0,5.896,4.771,10.667,10.667,10.667
		c5.896,0,10.667-4.771,10.667-10.667V42.667c0-11.76,9.573-21.333,21.333-21.333h256c11.76,0,21.333,9.573,21.333,21.333v426.667
		c0,11.76-9.573,21.333-21.333,21.333h-256c-11.76,0-21.333-9.573-21.333-21.333v-74.667c0-5.896-4.771-10.667-10.667-10.667
		c-5.896,0-10.667,4.771-10.667,10.667v74.667c0,23.531,19.135,42.667,42.667,42.667h256C492.865,512,512,492.865,512,469.333
		V42.667C512,19.135,492.865,0,469.333,0z"/>
	<path style="fill:#303C42;" d="M238.125,365.469c-4.344,3.979-4.635,10.729-0.656,15.073c2.104,2.292,4.979,3.458,7.865,3.458
		c2.573,0,5.156-0.927,7.208-2.802l128-117.333C382.75,261.844,384,258.99,384,256c0-2.99-1.25-5.844-3.458-7.865l-128-117.333
		c-4.365-3.979-11.083-3.677-15.073,0.656c-3.979,4.344-3.688,11.094,0.656,15.073l107.79,98.802H10.667
		C4.771,245.333,0,250.104,0,256c0,5.896,4.771,10.667,10.667,10.667h335.249L238.125,365.469z"/>
</g>
<linearGradient id="SVGID_1_" gradientUnits="userSpaceOnUse" x1="-43.8883" y1="640.6324" x2="-20.132" y2="629.5552" gradientTransform="matrix(21.3333 0 0 -21.3333 996.3334 13791.667)">
	<stop  offset="0" style="stop-color:#FFFFFF;stop-opacity:0.2"/>
	<stop  offset="1" style="stop-color:#FFFFFF;stop-opacity:0"/>
</linearGradient>
<path style="fill:url(#SVGID_1_);" d="M469.333,0h-256c-23.531,0-42.667,19.135-42.667,42.667v74.667
	c0,5.896,4.771,10.667,10.667,10.667c5.896,0,10.667-4.771,10.667-10.667V42.667c0-11.76,9.573-21.333,21.333-21.333h256
	c11.76,0,21.333,9.573,21.333,21.333v426.667c0,11.76-9.573,21.333-21.333,21.333h-256c-11.76,0-21.333-9.573-21.333-21.333v-74.667
	c0-5.896-4.771-10.667-10.667-10.667c-5.896,0-10.667,4.771-10.667,10.667v74.667c0,23.531,19.135,42.667,42.667,42.667h256
	C492.865,512,512,492.865,512,469.333V42.667C512,19.135,492.865,0,469.333,0z M238.125,365.469
	c-4.344,3.979-4.635,10.729-0.656,15.073c2.104,2.292,4.979,3.458,7.865,3.458c2.573,0,5.156-0.927,7.208-2.802l128-117.333
	C382.75,261.844,384,258.99,384,256c0-2.99-1.25-5.844-3.458-7.865l-128-117.333c-4.365-3.979-11.083-3.677-15.073,0.656
	c-3.979,4.344-3.688,11.094,0.656,15.073l107.79,98.802H10.667C4.771,245.333,0,250.104,0,256c0,5.896,4.771,10.667,10.667,10.667
	h335.249L238.125,365.469z"/>
<g>
</g>
<g>
</g>
<g>
</g>
<g>
</g>
<g>
</g>
<g>
</g>
<g>
</g>
<g>
</g>
<g>
</g>
<g>
</g>
<g>
</g>
<g>
</g>
<g>
</g>
<g>
</g>
<g>
</g>
</svg>
